<svg xmlns="http://www.w3.org/2000/svg" viewBox="0 0 102 54"><path fill="#000000" d="M100.03 17.57c-.84-.6-16.42-3.4-23.1-4.58-10.73-1.9-22.96-3.92-25.1-3.92-2.5 0-8.36 3.23-15.18 7.14-2.5 1.43-5.34 3.05-5.9 3.16l-.26.02c-1.07-5.33-6.91-7.33-10.5-7.33l-.56.01-1.77.08c-2.97.1-5.77.2-8.13 1.9-1.81 1.3-4.67 8.04-4.84 15.21-.15 6.47 3.15 15.5 5.42 16.51l.12.04a30 30 0 0 0 7.7 1.12c8.4 0 11.54-4.72 12.37-6.35l.38.03c.5.2 2.43.94 5.69 1.8.54.14 1.15.2 1.87.2 1.86 0 4-.47 5.72-.86.96-.2 1.78-.4 2.27-.43.52-.04 1.44-.06 2.73-.06l2.09.01c.8 1.63 2.3 3.2 3.65 3.2h.17c.89-.1 2-.74 3.19-1.48l.15.32c.61 1.17 1.82 2.53 3.2 2.53.45 0 .87-.15 1.25-.43l.17-.13c.78-.58 3.14-2.34 5.87-4.52 9.06-.63 9.74-1.5 10.1-1.95.65-.83.82-1.85.49-2.96a6.08 6.08 0 0 0-1.83-2.7c3.24-3.2 4.28-5.14 3.46-6.37a13.36 13.36 0 0 0-3.14-3c8.72.38 14.55.58 17.32.58 4.25 0 5.64-1.55 6.06-2.85.5-1.58-.32-3.36-1.13-3.94zM9.16 41.74c-.46-.99-.95-2.22-1.38-3.6l5.6 6.67c-.72-.13-1.45-.3-2.2-.48l-2.02-2.59zm-2.08-6.17a28.85 28.85 0 0 1-.6-3.5L16.8 45.24c-.57-.03-1.16-.09-1.76-.16l-7.96-9.5zm19.94 6.39l.1.08-.44.4-.11-.12.45-.36zm-1.48.9l.25.26-.73.45-.44-.43c.33-.07.64-.16.92-.27zm-2.58.4h.22l.83.84c-.33.14-.67.27-1.03.4l-1.07-1.36c.34.06.7.1 1.05.12zm4.91-2.03l-.1-.1c.18-.23.32-.47.44-.7l.23.03c-.15.23-.34.5-.57.77zm-7.94 1.2l1.9 2.4c-.33.08-.67.15-1.02.2L12.7 34.5l-.89.68 7.71 10.02c-.41.04-.84.06-1.29.07L6.37 30.12v-.82C6.53 22 9.5 16.1 10.5 15.4c1.94-1.4 4.5-1.5 7.2-1.59l1.82-.07.46-.02c2.64 0 6.73 1.24 8.33 4.43a6.5 6.5 0 0 0-4.46-2c-1.61 0-3.14.71-4.54 2.1h-.01l-.15.17a12.86 12.86 0 0 0-1.22 1.5l-.04.07a19.23 19.23 0 0 0-2.5 7.35l-.09.61-.01.15-.06.48-.03.3-.02.34-.03.44-.02.22-.02.57v.09a19.97 19.97 0 0 0 1.1 7.29 12.47 12.47 0 0 0 .55 1.23l.17.32h.01a7.7 7.7 0 0 0 2.98 3.06zm34.77.38c-.29 0-1.07-.55-1.72-1.5H54.16c.58 0 1.85-.02 3.53-.07l-.25.16c-.68.44-2.1 1.34-2.74 1.4zm7.13 1.14l-.17.13a.4.4 0 0 1-.25.09c-.76 0-1.82-1.57-1.94-2.15a.85.85 0 0 0-.01-.76l-.04-.06a272.78 272.78 0 0 0 6.36-.26c-1.87 1.46-3.36 2.56-3.95 3zm17.69-16.27c.01.1.02 1.12-3.56 4.62l-.08-.02a1 1 0 0 1-.07-.02l-.09-.02a3.09 3.09 0 0 0-.17-.04l-.08-.03-.11-.02-.08-.02-.14-.04a1.4 1.4 0 0 1-.07-.02l-.15-.03-.05-.01-.98-.23h-.03l-.25-.07-.07-.01-.25-.06-.1-.02-.23-.05-.19-.05-.15-.03-.81-.18-2.59-.58 3.35-3.35-.78-.79-3.84 3.84-1.9-.47 4.17-4.17-.78-.78-4.6 4.6a28.69 28.69 0 0 1-1.51-.85l5.43-5.43 5.87.28c2.48 1.6 4.22 3.03 4.89 4.05zM60 23.09l-1.92 1.92c.26-.69.82-1.58 1.92-1.92zm1.67-.1l1.84.1-3.61 3.6-1.19-.74 2.96-2.96zm3.33.17l2.25.11-4.92 4.92-1.46-.9L65 23.17zm34.56-2.15c-.36 1.09-1.95 1.68-4.47 1.68l-1.4-.01v-1.22H92.6v1.2l-1.67-.05v-1.77H89.8v1.74l-1.67-.06v-1.68h-1.11v1.64l-1.67-.06v-1.44h-1.11v1.4l-1.67-.07v-1.2h-1.11v1.15l-1.67-.07v-2.04H78.7v2l-1.67-.08v-1.92h-1.11v1.87l-.38-.02-.38-.02-.23-.01-.68-.03v-2.49h-1.11v2.44l-1.67-.08v-3.2h-1.11v3.15l-.56-.03h-.02l-.46-.02-.25-.02-.27-.01h-.1v-3.9h-1.12v3.84h-.17l-.34-.03-.26-.01h-.19l-.34-.03h-.2l-.17-.02V17.5h-1.1v3.98l-1.68-.09v-3.33h-1.1v3.28l-.64-.03a5.84 5.84 0 0 0-1.04.01v-2.15h-1.11v2.42c-.69.26-1.23.68-1.67 1.15v-2.46h-1.1v4.3a4 4 0 0 0-.29 1.26v.45l.38.25c1.19.8 6.26 3.95 7.45 4.54.7.36 3.4.97 7.44 1.88 1.92.43 3.74.83 4.2.99.03 0 .05.02.08.03l.06.02a4.43 4.43 0 0 1 1.9 2.33c.17.57.11 1.04-.19 1.44-.1.07-.26.15-.47.22v-.6h-1.1v.9c-.48.09-1.04.18-1.68.26v-1.5h-1.1v1.64l-1.68.17v-1.25h-1.1v1.35l-1.14.09-.53.04v-1.9h-1.12v1.97l-1.66.1v-1.65H64.8v1.7l-1.67.08v-2.47H62v2.52l-1.66.06v-2.86h-1.11v2.9l-1.67.04V36.5h-1.11v3.1l-1.67.04v-3.7h-1.11v3.7h-.56-.13l-.98-.02v-4.23H50.9v4.21h-.55l-1.12-.01v-4.76h-1.11v4.76c-.7 0-1.25.02-1.67.04V34h-1.11v5.76c-.49.09-1.05.21-1.67.35V34h-1.11v6.35c-.54.12-1.1.23-1.67.33v-7.94h-1.11v8.1a13.15 13.15 0 0 1-1.76.1v-9.75H36.9v9.62l-.1-.02-1.56-.43V30.23h-1.11v9.8c-.67-.2-1.23-.4-1.67-.55V29h-1.11v10.09a3.04 3.04 0 0 1-.14-.06l-.12-.05-1.41-.13V29h-1.11v9.75l-1.67-.15v-8.64h-1.11v8.54l-1.67-.14v-6.62h-1.11v6.52l-1.67-.15v-4.96h-1.1V38l-1.68-.15v-3.3h-1.11v1.65c-1.48-5.24-.2-12.84 2.32-15.95l.19-.23c2.55.33 5.82.73 8.17.92l.03.07.73-.01c1.06.07 1.73.08 2.12.01.78-.12 2.66-1.17 6.47-3.36 4.82-2.75 12.09-6.91 14.36-6.91 4.33 0 45 7.45 47.27 8.22.25.25.73 1.2.46 2.05z"/></svg>